<svg xmlns="http://www.w3.org/2000/svg" width="300" height="200" viewBox="0 0 30 20">
  <!-- Red background -->
  <rect width="30" height="20" fill="#DE2910" />
  
  <!-- Large star -->
  <polygon fill="#FFDE00" points="5,2 6.09,4.63 9,4.63 6.91,6.27 7.82,9 5,7.35 2.18,9 3.09,6.27 1,4.63 3.91,4.63" />
  
  <!-- Small stars -->
  <g transform="translate(10, 1)">
    <polygon transform="rotate(-30 1,2)" fill="#FFDE00" points="1,0.5 1.45,1.75 2.7,1.75 1.9,2.55 2.35,3.75 1,3 0.65,3.75 0.1,2.55 -0.1,1.75 0.1,1.75" />
  </g>
  <g transform="translate(12, 4)">
    <polygon transform="rotate(-15 1,2)" fill="#FFDE00" points="1,0.5 1.45,1.75 2.7,1.75 1.9,2.55 2.35,3.75 1,3 0.65,3.75 0.1,2.55 -0.1,1.75 0.1,1.75" />
  </g>
  <g transform="translate(12, 7)">
    <polygon transform="rotate(0 1,2)" fill="#FFDE00" points="1,0.5 1.45,1.75 2.7,1.75 1.9,2.55 2.35,3.75 1,3 0.65,3.75 0.1,2.55 -0.1,1.75 0.1,1.75" />
  </g>
  <g transform="translate(10, 9)">
    <polygon transform="rotate(15 1,2)" fill="#FFDE00" points="1,0.5 1.45,1.75 2.7,1.75 1.9,2.55 2.35,3.75 1,3 0.65,3.75 0.1,2.55 -0.1,1.75 0.1,1.75" />
  </g>
</svg>
